<svg xmlns="http://www.w3.org/2000/svg" xmlns:xlink="http://www.w3.org/1999/xlink" width="500" zoomAndPan="magnify" viewBox="0 0 375 374.999991" height="500" preserveAspectRatio="xMidYMid meet" version="1.0"><defs><g/><clipPath id="9395327353"><path d="M 11.292969 11.292969 L 363.707031 11.292969 L 363.707031 21.867188 L 11.292969 21.867188 Z M 353.25 21.867188 L 363.707031 21.867188 L 363.707031 353.25 L 353.25 353.25 Z M 11.292969 21.867188 L 21.867188 21.867188 L 21.867188 353.25 L 11.292969 353.25 Z M 11.292969 353.25 L 363.707031 353.25 L 363.707031 363.707031 L 11.292969 363.707031 Z M 11.292969 353.25 " clip-rule="nonzero"/></clipPath><clipPath id="68aff73c35"><path d="M 0.292969 0.292969 L 352.707031 0.292969 L 352.707031 10.867188 L 0.292969 10.867188 Z M 342.25 10.867188 L 352.707031 10.867188 L 352.707031 342.25 L 342.25 342.25 Z M 0.292969 10.867188 L 10.867188 10.867188 L 10.867188 342.25 L 0.292969 342.25 Z M 0.292969 342.25 L 352.707031 342.25 L 352.707031 352.707031 L 0.292969 352.707031 Z M 0.292969 342.25 " clip-rule="nonzero"/></clipPath><clipPath id="ab29754568"><rect x="0" width="353" y="0" height="353"/></clipPath><clipPath id="12b5ea4f79"><rect x="0" width="331" y="0" height="215"/></clipPath></defs><rect x="-37.5" width="450" fill="#ffffff" y="-37.499999" height="449.999989" fill-opacity="1"/><rect x="-37.5" width="450" fill="#ffffff" y="-37.499999" height="449.999989" fill-opacity="1"/><g clip-path="url(#9395327353)"><g transform="matrix(1, 0, 0, 1, 11, 11)"><g clip-path="url(#ab29754568)"><g clip-path="url(#68aff73c35)"><path fill="#ffffff" d="M 0.292969 0.292969 L 352.707031 0.292969 L 352.707031 352.707031 L 0.292969 352.707031 Z M 0.292969 0.292969 " fill-opacity="1" fill-rule="nonzero"/></g></g></g></g><g transform="matrix(1, 0, 0, 1, 23, 79)"><g clip-path="url(#12b5ea4f79)"><g fill="#ffffff" fill-opacity="1"><g transform="translate(0.853843, 90.978854)"><g><path d="M 40.21875 1.296875 C 28.820312 1.296875 20.179688 -0.726562 14.296875 -4.78125 C 8.421875 -8.832031 4.945312 -15.410156 3.875 -24.515625 L 21.296875 -25.8125 C 21.796875 -22.875 22.691406 -20.203125 23.984375 -17.796875 C 25.273438 -15.398438 27.242188 -13.5 29.890625 -12.09375 C 32.546875 -10.695312 36.097656 -10 40.546875 -10 C 43.265625 -10 46.019531 -10.234375 48.8125 -10.703125 C 51.613281 -11.171875 53.878906 -11.65625 55.609375 -12.15625 C 56.179688 -14.09375 56.679688 -15.972656 57.109375 -17.796875 C 57.535156 -19.628906 57.75 -21.546875 57.75 -23.546875 C 57.75 -25.921875 57.210938 -28.09375 56.140625 -30.0625 C 55.066406 -32.03125 53.164062 -33.675781 50.4375 -35 C 47.71875 -36.332031 43.847656 -37.140625 38.828125 -37.421875 C 27.347656 -38.210938 19.023438 -40.398438 13.859375 -43.984375 C 8.703125 -47.566406 6.125 -52.835938 6.125 -59.796875 C 6.125 -65.097656 7.554688 -69.488281 10.421875 -72.96875 C 13.296875 -76.445312 17.242188 -79.023438 22.265625 -80.703125 C 27.285156 -82.390625 32.945312 -83.234375 39.25 -83.234375 C 50.007812 -83.234375 58.039062 -80.957031 63.34375 -76.40625 C 68.644531 -71.851562 71.976562 -65.207031 73.34375 -56.46875 L 57.328125 -55.0625 C 56.679688 -58.4375 55.75 -61.34375 54.53125 -63.78125 C 53.3125 -66.21875 51.484375 -68.113281 49.046875 -69.46875 C 46.609375 -70.832031 43.09375 -71.515625 38.5 -71.515625 C 37.132812 -71.515625 35.519531 -71.40625 33.65625 -71.1875 C 31.789062 -70.976562 30 -70.710938 28.28125 -70.390625 C 26.5625 -70.066406 25.269531 -69.726562 24.40625 -69.375 C 23.90625 -68.007812 23.421875 -66.394531 22.953125 -64.53125 C 22.492188 -62.664062 22.265625 -60.617188 22.265625 -58.390625 C 22.265625 -54.453125 23.625 -51.550781 26.34375 -49.6875 C 29.070312 -47.820312 33.804688 -46.390625 40.546875 -45.390625 C 47.285156 -44.816406 52.804688 -43.9375 57.109375 -42.75 C 61.410156 -41.5625 64.757812 -40.019531 67.15625 -38.125 C 69.5625 -36.226562 71.25 -34.003906 72.21875 -31.453125 C 73.1875 -28.910156 73.671875 -26.023438 73.671875 -22.796875 C 73.671875 -17.710938 72.253906 -13.359375 69.421875 -9.734375 C 66.585938 -6.109375 62.660156 -3.363281 57.640625 -1.5 C 52.617188 0.363281 46.8125 1.296875 40.21875 1.296875 Z M 40.21875 1.296875 "/></g></g></g><g fill="#ffffff" fill-opacity="1"><g transform="translate(78.482387, 90.978854)"><g><path d="M 7.84375 0 C 7.914062 -6.59375 7.96875 -13.273438 8 -20.046875 C 8.039062 -26.828125 8.0625 -33.800781 8.0625 -40.96875 C 8.0625 -48.144531 8.039062 -55.15625 8 -62 C 7.96875 -68.84375 7.914062 -75.53125 7.84375 -82.0625 L 41.734375 -82.0625 C 48.828125 -82.0625 54.898438 -81.179688 59.953125 -79.421875 C 65.015625 -77.660156 68.890625 -74.738281 71.578125 -70.65625 C 74.265625 -66.570312 75.609375 -61.015625 75.609375 -53.984375 C 75.609375 -43.878906 73.347656 -36.566406 68.828125 -32.046875 C 64.304688 -27.535156 57.242188 -25.28125 47.640625 -25.28125 L 33.125 -25.28125 C 31.257812 -25.28125 29.769531 -25.691406 28.65625 -26.515625 C 27.550781 -27.335938 26.691406 -28.320312 26.078125 -29.46875 C 25.472656 -30.613281 24.914062 -31.65625 24.40625 -32.59375 L 23.34375 -32.375 C 23.769531 -29.363281 23.984375 -26.382812 23.984375 -23.4375 C 23.984375 -21.070312 24 -18.4375 24.03125 -15.53125 C 24.070312 -12.632812 24.109375 -9.820312 24.140625 -7.09375 C 24.179688 -4.375 24.238281 -2.007812 24.3125 0 Z M 23.984375 -35.59375 L 40.328125 -35.59375 C 46.066406 -35.59375 50.671875 -36.882812 54.140625 -39.46875 C 57.617188 -42.050781 59.359375 -46.601562 59.359375 -53.125 C 59.359375 -59.65625 57.671875 -64.226562 54.296875 -66.84375 C 50.929688 -69.457031 46.238281 -70.765625 40.21875 -70.765625 L 24.09375 -70.765625 L 23.984375 -36.34375 C 23.984375 -36.28125 23.984375 -36.175781 23.984375 -36.03125 C 23.984375 -35.882812 23.984375 -35.738281 23.984375 -35.59375 Z M 23.984375 -35.59375 "/></g></g></g><g fill="#ffffff" fill-opacity="1"><g transform="translate(158.046274, 90.978854)"><g><path d="M 7.84375 0 C 7.988281 -6.8125 8.097656 -13.640625 8.171875 -20.484375 C 8.242188 -27.335938 8.28125 -34.164062 8.28125 -40.96875 C 8.28125 -47.851562 8.242188 -54.703125 8.171875 -61.515625 C 8.097656 -68.328125 7.988281 -75.175781 7.84375 -82.0625 L 24.3125 -82.0625 C 24.09375 -75.25 23.960938 -68.414062 23.921875 -61.5625 C 23.890625 -54.71875 23.875 -47.890625 23.875 -41.078125 C 23.875 -34.203125 23.890625 -27.335938 23.921875 -20.484375 C 23.960938 -13.640625 24.09375 -6.8125 24.3125 0 Z M 7.84375 0 "/></g></g></g><g fill="#ffffff" fill-opacity="1"><g transform="translate(190.194394, 90.978854)"><g><path d="M 23.65625 0 C 23.800781 -6.738281 23.890625 -13.53125 23.921875 -20.375 C 23.960938 -27.226562 23.984375 -33.878906 23.984375 -40.328125 C 23.984375 -45.273438 23.960938 -50.328125 23.921875 -55.484375 C 23.890625 -60.648438 23.835938 -65.421875 23.765625 -69.796875 C 20.179688 -69.796875 16.238281 -69.773438 11.9375 -69.734375 C 7.632812 -69.703125 3.507812 -69.648438 -0.4375 -69.578125 L -0.4375 -82.0625 L 64.421875 -82.0625 L 64.421875 -69.578125 C 60.691406 -69.648438 56.640625 -69.703125 52.265625 -69.734375 C 47.890625 -69.773438 43.835938 -69.796875 40.109375 -69.796875 C 40.109375 -67.859375 40.085938 -65.523438 40.046875 -62.796875 C 40.015625 -60.078125 39.984375 -57.226562 39.953125 -54.25 C 39.921875 -51.28125 39.90625 -48.453125 39.90625 -45.765625 C 39.90625 -43.078125 39.90625 -40.835938 39.90625 -39.046875 C 39.90625 -25.921875 40.007812 -12.90625 40.21875 0 Z M 23.65625 0 "/></g></g></g><g fill="#ffffff" fill-opacity="1"><g transform="translate(254.168042, 90.978854)"><g><path d="M 3.875 0 L 3.875 -15.171875 C 12.039062 -23.765625 20.191406 -32.378906 28.328125 -41.015625 C 36.472656 -49.660156 44.632812 -58.285156 52.8125 -66.890625 L 52.8125 -67.96875 C 44.269531 -67.894531 36.914062 -67.835938 30.75 -67.796875 C 24.59375 -67.765625 19.429688 -67.726562 15.265625 -67.6875 C 11.109375 -67.65625 7.632812 -67.609375 4.84375 -67.546875 L 4.84375 -82.0625 L 70.4375 -82.0625 L 70.4375 -67.640625 L 21.515625 -15.484375 L 21.515625 -14.203125 C 23.734375 -14.203125 26.582031 -14.21875 30.0625 -14.25 C 33.539062 -14.28125 37.300781 -14.3125 41.34375 -14.34375 C 45.394531 -14.382812 49.394531 -14.421875 53.34375 -14.453125 C 57.289062 -14.492188 60.859375 -14.53125 64.046875 -14.5625 C 67.234375 -14.601562 69.648438 -14.625 71.296875 -14.625 L 71.296875 0 Z M 3.875 0 "/></g></g></g><g fill="#ffffff" fill-opacity="1"><g transform="translate(0.853843, 197.949991)"><g><path d="M 81.40625 -33.765625 L 81.40625 -31.078125 L 72.703125 -31.078125 L 79.375 0 L 68.40625 0 L 65.609375 -15.0625 C 63.523438 -10.039062 59.898438 -6.039062 54.734375 -3.0625 C 49.578125 -0.09375 43.054688 1.390625 35.171875 1.390625 C 31.078125 1.390625 27.128906 0.851562 23.328125 -0.21875 C 19.535156 -1.289062 16.113281 -2.847656 13.0625 -4.890625 C 10.019531 -6.929688 7.617188 -9.421875 5.859375 -12.359375 C 4.097656 -15.304688 3.21875 -18.609375 3.21875 -22.265625 C 3.21875 -29.929688 6.015625 -35.539062 11.609375 -39.09375 C 17.203125 -42.644531 24.875 -44.523438 34.625 -44.734375 L 34.625 -45.8125 L 5.484375 -62.265625 L 5.484375 -82.0625 L 68.609375 -82.0625 L 68.609375 -68.71875 C 59.296875 -68.863281 50.425781 -68.972656 42 -69.046875 C 33.570312 -69.117188 24.695312 -69.191406 15.375 -69.265625 L 15.375 -68.1875 L 48.5 -49.90625 L 48.5 -42.484375 L 45.921875 -42.484375 C 39.609375 -42.484375 34.5 -41.53125 30.59375 -39.625 C 26.6875 -37.726562 23.835938 -35.273438 22.046875 -32.265625 C 20.253906 -29.253906 19.320312 -26.0625 19.25 -22.6875 C 19.25 -21.113281 19.460938 -19.46875 19.890625 -17.75 C 20.328125 -16.03125 20.6875 -14.628906 20.96875 -13.546875 C 22.613281 -12.691406 24.765625 -11.921875 27.421875 -11.234375 C 30.078125 -10.554688 32.734375 -10.21875 35.390625 -10.21875 C 39.253906 -10.21875 42.640625 -10.988281 45.546875 -12.53125 C 48.453125 -14.070312 50.707031 -16.113281 52.3125 -18.65625 C 53.925781 -21.207031 54.734375 -23.988281 54.734375 -27 C 54.734375 -27.925781 54.734375 -28.675781 54.734375 -29.25 C 54.734375 -29.820312 54.664062 -30.429688 54.53125 -31.078125 L 47.21875 -31.078125 L 47.21875 -33.875 Z M 81.40625 -33.765625 "/></g></g></g><g fill="#ffffff" fill-opacity="1"><g transform="translate(85.148552, 197.949991)"><g/></g></g><g fill="#ffffff" fill-opacity="1"><g transform="translate(110.953045, 197.949991)"><g><path d="M 41.625 1.390625 C 16.457031 1.390625 3.875 -12.726562 3.875 -40.96875 C 3.875 -69.144531 16.457031 -83.234375 41.625 -83.234375 C 53.238281 -83.234375 61.859375 -80.457031 67.484375 -74.90625 C 73.109375 -69.351562 76.5 -61.554688 77.65625 -51.515625 L 61.625 -49.6875 C 60.550781 -56.925781 58.253906 -62.335938 54.734375 -65.921875 C 51.222656 -69.503906 46.171875 -71.296875 39.578125 -71.296875 C 37.929688 -71.296875 36.082031 -71.171875 34.03125 -70.921875 C 31.988281 -70.671875 30.019531 -70.3125 28.125 -69.84375 C 26.226562 -69.382812 24.632812 -68.796875 23.34375 -68.078125 C 22.257812 -64.566406 21.445312 -60.40625 20.90625 -55.59375 C 20.375 -50.789062 20.109375 -45.453125 20.109375 -39.578125 C 20.109375 -30.046875 22.0625 -22.804688 25.96875 -17.859375 C 29.875 -12.910156 35.738281 -10.4375 43.5625 -10.4375 C 45.0625 -10.4375 46.796875 -10.539062 48.765625 -10.75 C 50.742188 -10.96875 52.664062 -11.238281 54.53125 -11.5625 C 56.394531 -11.882812 57.863281 -12.222656 58.9375 -12.578125 C 59.507812 -14.941406 60.007812 -17.304688 60.4375 -19.671875 C 60.875 -22.046875 61.09375 -24.664062 61.09375 -27.53125 L 77.109375 -27.53125 C 75.742188 -18.28125 72.210938 -11.144531 66.515625 -6.125 C 60.816406 -1.113281 52.519531 1.390625 41.625 1.390625 Z M 41.625 1.390625 "/></g></g></g><g fill="#ffffff" fill-opacity="1"><g transform="translate(192.559776, 197.949991)"><g><path d="M 41.828125 1.390625 C 16.523438 1.390625 3.875 -12.726562 3.875 -40.96875 C 3.875 -55.09375 7.046875 -65.664062 13.390625 -72.6875 C 19.734375 -79.71875 29.070312 -83.234375 41.40625 -83.234375 C 66.71875 -83.234375 79.375 -69.078125 79.375 -40.765625 C 79.375 -26.710938 76.179688 -16.171875 69.796875 -9.140625 C 63.410156 -2.117188 54.085938 1.390625 41.828125 1.390625 Z M 42.265625 -10.4375 C 43.835938 -10.4375 45.769531 -10.5625 48.0625 -10.8125 C 50.363281 -11.0625 52.625 -11.414062 54.84375 -11.875 C 57.070312 -12.34375 58.757812 -12.9375 59.90625 -13.65625 C 60.625 -16.59375 61.210938 -19.351562 61.671875 -21.9375 C 62.140625 -24.519531 62.5 -27.28125 62.75 -30.21875 C 63 -33.15625 63.125 -36.5625 63.125 -40.4375 C 63.125 -46.601562 62.265625 -52 60.546875 -56.625 C 58.828125 -61.25 56.335938 -64.832031 53.078125 -67.375 C 49.816406 -69.925781 45.816406 -71.203125 41.078125 -71.203125 C 39.359375 -71.203125 37.367188 -71.070312 35.109375 -70.8125 C 32.847656 -70.5625 30.644531 -70.203125 28.5 -69.734375 C 26.351562 -69.273438 24.597656 -68.6875 23.234375 -67.96875 C 22.148438 -64.457031 21.335938 -60.65625 20.796875 -56.5625 C 20.265625 -52.476562 20 -47.460938 20 -41.515625 C 20 -35.347656 20.859375 -29.914062 22.578125 -25.21875 C 24.304688 -20.519531 26.835938 -16.878906 30.171875 -14.296875 C 33.503906 -11.722656 37.535156 -10.4375 42.265625 -10.4375 Z M 42.265625 -10.4375 "/></g></g></g><g fill="#ffffff" fill-opacity="1"><g transform="translate(275.886815, 197.949991)"><g><path d="M 12.578125 1.390625 C 9.285156 1.390625 6.972656 0.78125 5.640625 -0.4375 C 4.316406 -1.65625 3.65625 -3.375 3.65625 -5.59375 C 3.65625 -7.882812 4.316406 -9.601562 5.640625 -10.75 C 6.972656 -11.894531 9.285156 -12.46875 12.578125 -12.46875 C 15.878906 -12.46875 18.207031 -11.894531 19.5625 -10.75 C 20.925781 -9.601562 21.609375 -7.882812 21.609375 -5.59375 C 21.609375 -3.375 20.925781 -1.65625 19.5625 -0.4375 C 18.207031 0.78125 15.878906 1.390625 12.578125 1.390625 Z M 12.578125 1.390625 "/></g></g></g></g></g></svg>